<?xml version="1.0" encoding="utf-8"?>
<!-- Generator: Adobe Illustrator 26.1.0, SVG Export Plug-In . SVG Version: 6.00 Build 0)  -->
<svg version="1.1" id="Layer_1" xmlns="http://www.w3.org/2000/svg" xmlns:xlink="http://www.w3.org/1999/xlink" x="0px" y="0px"
	 viewBox="0 0 24 24" style="enable-background:new 0 0 24 24;" xml:space="preserve">
<style type="text/css">
	.st0{fill:#FFFFFF;stroke:#FFFFFF;stroke-miterlimit:10;}
	.st1{opacity:0.5;fill:#FFFFFF;stroke:#FFFFFF;stroke-miterlimit:10;}
</style>
<g>
	<path class="st0" d="M3,6.5C3,3.9,3,3,6.5,3S10,3.9,10,6.5S10,10,6.5,10C3,10,3,9.1,3,6.5z"/>
	<path class="st1" d="M14,6.5C14,3.9,14,3,17.5,3S21,3.9,21,6.5s0,3.5-3.5,3.5S14,9.1,14,6.5z"/>
	<path class="st0" d="M3,17.5C3,14.9,3,14,6.5,14s3.5,0.9,3.5,3.5S10,21,6.5,21C3,21,3,20.1,3,17.5z"/>
	<path class="st0" d="M14,17.5c0-2.6,0-3.5,3.5-3.5s3.5,0.9,3.5,3.5s0,3.5-3.5,3.5S14,20.1,14,17.5z"/>
</g>
</svg>
