<?xml version="1.0" encoding="utf-8"?>
<!-- Generator: Adobe Illustrator 26.1.0, SVG Export Plug-In . SVG Version: 6.00 Build 0)  -->
<svg version="1.1" id="Layer_1" xmlns="http://www.w3.org/2000/svg" xmlns:xlink="http://www.w3.org/1999/xlink" x="0px" y="0px"
	 viewBox="0 0 24 24" style="enable-background:new 0 0 24 24;" xml:space="preserve">
<style type="text/css">
	.st0{fill:none;stroke:#53545C;stroke-width:1.5;stroke-linecap:round;stroke-linejoin:round;}
</style>
<path class="st0" d="M16.5,21.5H8.2c-3.1,0-5.4-1.1-4.8-5.6l0.8-6C4.6,7.7,6,6.8,7.3,6.8h10.2c1.3,0,2.6,0.9,3.1,3.1l0.8,6
	C21.9,19.9,19.6,21.5,16.5,21.5z"/>
<path class="st0" d="M16.7,6.6c0-2.4-1.9-4.3-4.3-4.3l0,0c-1.1,0-2.3,0.4-3.1,1.3C8.4,4.3,8,5.4,8,6.6l0,0"/>
<path class="st0" d="M15.3,11.1L15.3,11.1"/>
<path class="st0" d="M9.5,11.1L9.5,11.1"/>
</svg>
