<?xml version="1.0" encoding="utf-8"?>
<!-- Generator: Adobe Illustrator 26.1.0, SVG Export Plug-In . SVG Version: 6.00 Build 0)  -->
<svg version="1.1" id="Layer_1" xmlns="http://www.w3.org/2000/svg" xmlns:xlink="http://www.w3.org/1999/xlink" x="0px" y="0px"
	 viewBox="0 0 24 24" style="enable-background:new 0 0 24 24;" xml:space="preserve">
<style type="text/css">
	.st0{fill:none;stroke:#FFFFFF;stroke-width:2;stroke-linecap:round;stroke-linejoin:round;}
</style>
<path class="st0" d="M3,18v-6c0-2.4,0.9-4.7,2.6-6.4S9.6,3,12,3c2.4,0,4.7,0.9,6.4,2.6c1.7,1.7,2.6,4,2.6,6.4v6"/>
<path class="st0" d="M21,19c0,0.5-0.2,1-0.6,1.4C20,20.8,19.5,21,19,21h-1c-0.5,0-1-0.2-1.4-0.6C16.2,20,16,19.5,16,19v-3
	c0-0.5,0.2-1,0.6-1.4C17,14.2,17.5,14,18,14h3V19z M3,19c0,0.5,0.2,1,0.6,1.4C4,20.8,4.5,21,5,21h1c0.5,0,1-0.2,1.4-0.6
	C7.8,20,8,19.5,8,19v-3c0-0.5-0.2-1-0.6-1.4C7,14.2,6.5,14,6,14H3V19z"/>
</svg>
