<?xml version="1.0" encoding="utf-8"?>
<!-- Generator: Adobe Illustrator 26.1.0, SVG Export Plug-In . SVG Version: 6.00 Build 0)  -->
<svg version="1.1" id="Layer_1" xmlns="http://www.w3.org/2000/svg" xmlns:xlink="http://www.w3.org/1999/xlink" x="0px" y="0px"
	 viewBox="0 0 24 24" style="enable-background:new 0 0 24 24;" xml:space="preserve">
<style type="text/css">
	.st0{fill:none;stroke:#5570F1;stroke-width:1.5;stroke-linecap:round;stroke-linejoin:round;}
</style>
<g id="Iconly_x2F_Light_x2F_Graph">
	<g id="Graph">
		<path id="Stroke_1" class="st0" d="M17.3,13.9c0.7,0,1.2,0.6,1.1,1.2c-0.6,3.9-4,6.8-8,6.8c-4.5,0-8.1-3.6-8.1-8.1
			c0-3.7,2.8-7.1,6-7.9c0.7-0.2,1.4,0.3,1.4,1c0,4.7,0.2,6,1.1,6.6C11.6,14.2,12.6,13.9,17.3,13.9z"/>
		<path id="Stroke_3" class="st0" d="M21.7,10c0.1-3-3.7-7.9-8.2-7.9c-0.4,0-0.6,0.3-0.7,0.7c-0.1,2.5,0,5.7,0.1,7.2
			c0,0.5,0.4,0.8,0.8,0.8c1.5,0.1,4.9,0.2,7.3-0.2C21.4,10.6,21.7,10.3,21.7,10z"/>
	</g>
</g>
</svg>
