<?xml version="1.0" encoding="utf-8"?>
<!-- Generator: Adobe Illustrator 26.1.0, SVG Export Plug-In . SVG Version: 6.00 Build 0)  -->
<svg version="1.1" id="Layer_1" xmlns="http://www.w3.org/2000/svg" xmlns:xlink="http://www.w3.org/1999/xlink" x="0px" y="0px"
	 viewBox="0 0 24 24" style="enable-background:new 0 0 24 24;" xml:space="preserve">
<style type="text/css">
	.st0{opacity:0.4;fill:#CC5F5F;enable-background:new    ;}
	.st1{fill:#CC5F5F;}
</style>
<g id="Iconly_x2F_Bulk_x2F_Logout">
	<g id="Logout">
		<path id="Fill_1" class="st0" d="M2,6.4C2,4,4,2,6.5,2h5C14,2,16,4,16,6.4v11.1c0,2.5-2,4.4-4.5,4.4h-5C4,22,2,20,2,17.6v-0.9V6.4
			z"/>
		<path id="Fill_3" class="st1" d="M21.8,11.5l-2.8-2.9c-0.3-0.3-0.8-0.3-1.1,0c-0.3,0.3-0.3,0.8,0,1.1l1.6,1.6h-1.5H9.5
			c-0.4,0-0.7,0.3-0.7,0.8c0,0.4,0.3,0.8,0.7,0.8h9.9l-1.6,1.6c-0.3,0.3-0.3,0.8,0,1.1c0.1,0.2,0.3,0.2,0.5,0.2
			c0.2,0,0.4-0.1,0.5-0.2l2.8-2.9c0.1-0.1,0.2-0.3,0.2-0.5C22,11.8,21.9,11.6,21.8,11.5z"/>
	</g>
</g>
</svg>
