<?xml version="1.0" encoding="utf-8"?>
<!-- Generator: Adobe Illustrator 26.1.0, SVG Export Plug-In . SVG Version: 6.00 Build 0)  -->
<svg version="1.1" id="Layer_1" xmlns="http://www.w3.org/2000/svg" xmlns:xlink="http://www.w3.org/1999/xlink" x="0px" y="0px"
	 viewBox="0 0 24 24" style="enable-background:new 0 0 24 24;" xml:space="preserve">
<style type="text/css">
	.st0{fill:none;stroke:#FFFFFF;stroke-width:2;stroke-linecap:round;stroke-linejoin:round;}
</style>
<path class="st0" d="M20,12v10H4V12"/>
<path class="st0" d="M22,7H2v5h20V7z"/>
<path class="st0" d="M12,22V7"/>
<path class="st0" d="M12,7h4.5c0.7,0,1.3-0.3,1.8-0.7C18.7,5.8,19,5.2,19,4.5s-0.3-1.3-0.7-1.8C17.8,2.3,17.2,2,16.5,2
	C13,2,12,7,12,7z"/>
<path class="st0" d="M12,7H7.5C6.8,7,6.2,6.7,5.7,6.3C5.3,5.8,5,5.2,5,4.5s0.3-1.3,0.7-1.8C6.2,2.3,6.8,2,7.5,2C11,2,12,7,12,7z"/>
</svg>
