<?xml version="1.0" encoding="utf-8"?>
<!-- Generator: Adobe Illustrator 26.1.0, SVG Export Plug-In . SVG Version: 6.00 Build 0)  -->
<svg version="1.1" id="Layer_1" xmlns="http://www.w3.org/2000/svg" xmlns:xlink="http://www.w3.org/1999/xlink" x="0px" y="0px"
	 viewBox="0 0 24 24" style="enable-background:new 0 0 24 24;" xml:space="preserve">
<style type="text/css">
	.st0{fill:none;stroke:#53545C;stroke-width:1.5;stroke-linecap:round;stroke-linejoin:round;}
</style>
<path class="st0" d="M20.8,7.6l-0.6-1.1c-0.5-0.9-1.7-1.2-2.6-0.7l0,0c-0.4,0.3-1,0.3-1.4,0.2c-0.5-0.1-0.9-0.4-1.2-0.9
	c-0.2-0.3-0.3-0.6-0.3-0.9l0,0c0-0.5-0.2-1-0.5-1.4c-0.4-0.4-0.9-0.6-1.4-0.6h-1.3c-0.5,0-1,0.2-1.3,0.6C9.8,3.2,9.6,3.7,9.6,4.2
	l0,0c0,1-0.9,1.9-1.9,1.9C7.4,6.1,7.1,6,6.8,5.8l0,0C5.9,5.3,4.7,5.6,4.2,6.5L3.5,7.6C3,8.5,3.3,9.7,4.2,10.2l0,0c0.6,0.3,1,1,1,1.7
	c0,0.7-0.4,1.3-1,1.7l0,0c-0.9,0.5-1.2,1.7-0.7,2.6l0,0l0.6,1.1c0.2,0.4,0.7,0.8,1.2,0.9c0.5,0.1,1,0.1,1.5-0.2l0,0
	c0.4-0.3,1-0.3,1.4-0.2c0.5,0.1,0.9,0.5,1.2,0.9c0.2,0.3,0.3,0.6,0.3,0.9l0,0c0,1.1,0.9,1.9,1.9,1.9h1.3c1.1,0,1.9-0.9,1.9-1.9l0,0
	c0-0.5,0.2-1,0.6-1.4c0.4-0.4,0.8-0.6,1.4-0.6c0.3,0,0.6,0.1,0.9,0.3l0,0c0.9,0.5,2.1,0.2,2.6-0.7l0,0l0.7-1.1
	c0.3-0.4,0.3-1,0.2-1.4c-0.1-0.5-0.5-0.9-0.9-1.2l0,0c-0.4-0.3-0.8-0.7-0.9-1.2c-0.1-0.5-0.1-1,0.2-1.4c0.2-0.3,0.4-0.5,0.7-0.7l0,0
	C21,9.7,21.3,8.5,20.8,7.6L20.8,7.6L20.8,7.6z"/>
<circle class="st0" cx="12.2" cy="11.9" r="2.6"/>
</svg>
