<?xml version="1.0" encoding="utf-8"?>
<!-- Generator: Adobe Illustrator 26.1.0, SVG Export Plug-In . SVG Version: 6.00 Build 0)  -->
<svg version="1.1" id="Layer_1" xmlns="http://www.w3.org/2000/svg" xmlns:xlink="http://www.w3.org/1999/xlink" x="0px" y="0px"
	 viewBox="0 0 24 24" style="enable-background:new 0 0 24 24;" xml:space="preserve">
<style type="text/css">
	.st0{fill:none;stroke:#130F26;stroke-width:1.5;stroke-linecap:round;stroke-linejoin:round;}
	
		.st1{fill-rule:evenodd;clip-rule:evenodd;fill:#130F26;stroke:#130F26;stroke-width:1.5;stroke-linecap:round;stroke-linejoin:round;}
</style>
<g id="Iconly_x2F_Light_x2F_Buy">
	<g id="Buy">
		<path id="Stroke_1" class="st0" d="M2.8,3.2l2.1,0.4l1,11.5c0.1,0.9,0.9,1.7,1.8,1.7h10.9c0.9,0,1.7-0.7,1.8-1.5l0.9-6.6
			c0.1-0.7-0.4-1.4-1.1-1.5c-0.1,0-14.9,0-14.9,0"/>
		<path id="Stroke_3" class="st0" d="M14.1,10.8h2.8"/>
		<path id="Stroke_5" class="st1" d="M7.2,20.2c0.3,0,0.5,0.2,0.5,0.5c0,0.3-0.2,0.5-0.5,0.5c-0.3,0-0.5-0.2-0.5-0.5
			C6.6,20.4,6.9,20.2,7.2,20.2z"/>
		<path id="Stroke_7" class="st1" d="M18.4,20.2c0.3,0,0.5,0.2,0.5,0.5c0,0.3-0.2,0.5-0.5,0.5c-0.3,0-0.5-0.2-0.5-0.5
			C17.9,20.4,18.1,20.2,18.4,20.2z"/>
	</g>
</g>
</svg>
