<?xml version="1.0" encoding="utf-8"?>
<!-- Generator: Adobe Illustrator 26.1.0, SVG Export Plug-In . SVG Version: 6.00 Build 0)  -->
<svg version="1.1" id="Layer_1" xmlns="http://www.w3.org/2000/svg" xmlns:xlink="http://www.w3.org/1999/xlink" x="0px" y="0px"
	 viewBox="0 0 24 24" style="enable-background:new 0 0 24 24;" xml:space="preserve">
<style type="text/css">
	.st0{fill:#FFCC91;}
	.st1{opacity:0.4;fill:#FFCC91;enable-background:new    ;}
</style>
<g id="Iconly_x2F_Bulk_x2F_Notification">
	<g id="Notification">
		<path id="Fill_1" class="st0" d="M19.8,11.6c-0.7-0.9-1.1-1.6-1.1-2.8V8.4c0-1.6-0.4-2.7-1.2-3.7C16.2,3,14.1,2,12,2H12
			c-2,0-4.1,0.9-5.4,2.5C5.7,5.6,5.3,6.7,5.3,8.4v0.4c0,1.3-0.3,2-1.1,2.8c-0.6,0.6-0.7,1.4-0.7,2.3c0,0.9,0.3,1.7,0.9,2.4
			c0.8,0.8,1.8,1.3,2.9,1.4C8.8,17.9,10.4,18,12,18c1.6,0,3.2-0.1,4.7-0.2c1.1-0.1,2.1-0.6,2.9-1.4c0.6-0.7,0.9-1.5,0.9-2.4
			C20.5,13.1,20.3,12.3,19.8,11.6z"/>
		<path id="Fill_4" class="st1" d="M14,19.2c-0.5-0.1-3.5-0.1-4,0c-0.4,0.1-0.9,0.3-0.9,0.8c0,0.5,0.3,0.9,0.7,1.2l0,0
			c0.5,0.4,1.1,0.6,1.7,0.7c0.3,0,0.7,0,1,0c0.6-0.1,1.2-0.3,1.7-0.7l0,0c0.4-0.3,0.7-0.7,0.7-1.2C14.9,19.6,14.4,19.3,14,19.2z"/>
	</g>
</g>
</svg>
