<?xml version="1.0" encoding="utf-8"?>
<!-- Generator: Adobe Illustrator 26.1.0, SVG Export Plug-In . SVG Version: 6.00 Build 0)  -->
<svg version="1.1" id="Layer_1" xmlns="http://www.w3.org/2000/svg" xmlns:xlink="http://www.w3.org/1999/xlink" x="0px" y="0px"
	 viewBox="0 0 24 24" style="enable-background:new 0 0 24 24;" xml:space="preserve">
<style type="text/css">
	.st0{fill:none;stroke:#FFFFFF;stroke-width:1.5;stroke-linecap:round;stroke-linejoin:round;}
</style>
<path class="st0" d="M9.6,15.2c3.7,0,6.8,0.6,6.8,2.8s-3.1,2.8-6.8,2.8c-3.7,0-6.8-0.6-6.8-2.8S5.9,15.2,9.6,15.2z"/>
<path class="st0" d="M9.6,12c-2.4,0-4.4-2-4.4-4.4s2-4.4,4.4-4.4c2.4,0,4.4,2,4.4,4.4C14,10,12,12,9.6,12L9.6,12z"/>
<path class="st0" d="M16.5,10.9c1.6-0.2,2.8-1.6,2.8-3.3c0-1.6-1.2-3-2.8-3.3"/>
<path class="st0" d="M18.6,14.7c1.6,0.2,2.6,0.8,2.6,1.9c0,0.8-0.5,1.3-1.3,1.6"/>
</svg>
